<svg xmlns="http://www.w3.org/2000/svg" width="40" height="40" viewBox="0 0 40 40" fill="none">
  <circle cx="20" cy="20" r="20" fill="#3B82F6"/>
  <path d="M13.516 14.6H18.684C19.324 14.6 19.876 14.72 20.34 14.96C20.804 15.2 21.16 15.532 21.408 15.956C21.656 16.38 21.78 16.856 21.78 17.384C21.78 17.88 21.672 18.32 21.456 18.704C21.248 19.088 20.956 19.4 20.58 19.64C20.212 19.872 19.788 20.024 19.308 20.096L19.308 20.144C19.836 20.208 20.3 20.368 20.7 20.624C21.108 20.872 21.428 21.204 21.66 21.62C21.892 22.028 22.008 22.5 22.008 23.036C22.008 23.644 21.868 24.188 21.588 24.668C21.308 25.148 20.884 25.528 20.316 25.808C19.748 26.08 19.04 26.216 18.192 26.216H13.516V14.6ZM17.664 19.328C18.176 19.328 18.568 19.208 18.84 18.968C19.112 18.72 19.248 18.38 19.248 17.948C19.248 17.516 19.108 17.18 18.828 16.94C18.556 16.692 18.16 16.568 17.64 16.568H16.084V19.328H17.664ZM17.904 24.248C18.448 24.248 18.868 24.116 19.164 23.852C19.468 23.58 19.62 23.204 19.62 22.724C19.62 22.26 19.464 21.9 19.152 21.644C18.84 21.38 18.408 21.248 17.856 21.248H16.084V24.248H17.904ZM24.4291 14.6H27.1411V23.804H32.2651V26.216H24.4291V14.6Z" fill="white"/>
</svg>
